<svg xmlns="http://www.w3.org/2000/svg" viewBox="0 0 1200 900" width="1200" height="900" role="img" aria-label="The Sidings, Bradford placeholder image">
  <defs>
    <linearGradient id="bg" x1="0" y1="0" x2="1" y2="1">
      <stop offset="0%" stop-color="#0D1013"/>
      <stop offset="100%" stop-color="#1A1712"/>
    </linearGradient>
    <linearGradient id="floor" x1="0" y1="0" x2="0" y2="1">
      <stop offset="0%" stop-color="#C9A227" stop-opacity="0.14"/>
      <stop offset="100%" stop-color="#C9A227" stop-opacity="0"/>
    </linearGradient>
  </defs>
  <rect width="1200" height="900" fill="url(#bg)"/>
  <g><line x1="0" y1="0" x2="0" y2="900" stroke="#C9A227" stroke-opacity="0.05"/><line x1="60" y1="0" x2="60" y2="900" stroke="#C9A227" stroke-opacity="0.05"/><line x1="120" y1="0" x2="120" y2="900" stroke="#C9A227" stroke-opacity="0.05"/><line x1="180" y1="0" x2="180" y2="900" stroke="#C9A227" stroke-opacity="0.05"/><line x1="240" y1="0" x2="240" y2="900" stroke="#C9A227" stroke-opacity="0.05"/><line x1="300" y1="0" x2="300" y2="900" stroke="#C9A227" stroke-opacity="0.05"/><line x1="360" y1="0" x2="360" y2="900" stroke="#C9A227" stroke-opacity="0.05"/><line x1="420" y1="0" x2="420" y2="900" stroke="#C9A227" stroke-opacity="0.05"/><line x1="480" y1="0" x2="480" y2="900" stroke="#C9A227" stroke-opacity="0.05"/><line x1="540" y1="0" x2="540" y2="900" stroke="#C9A227" stroke-opacity="0.05"/><line x1="600" y1="0" x2="600" y2="900" stroke="#C9A227" stroke-opacity="0.05"/><line x1="660" y1="0" x2="660" y2="900" stroke="#C9A227" stroke-opacity="0.05"/><line x1="720" y1="0" x2="720" y2="900" stroke="#C9A227" stroke-opacity="0.05"/><line x1="780" y1="0" x2="780" y2="900" stroke="#C9A227" stroke-opacity="0.05"/><line x1="840" y1="0" x2="840" y2="900" stroke="#C9A227" stroke-opacity="0.05"/><line x1="900" y1="0" x2="900" y2="900" stroke="#C9A227" stroke-opacity="0.05"/><line x1="960" y1="0" x2="960" y2="900" stroke="#C9A227" stroke-opacity="0.05"/><line x1="1020" y1="0" x2="1020" y2="900" stroke="#C9A227" stroke-opacity="0.05"/><line x1="1080" y1="0" x2="1080" y2="900" stroke="#C9A227" stroke-opacity="0.05"/><line x1="1140" y1="0" x2="1140" y2="900" stroke="#C9A227" stroke-opacity="0.05"/><line x1="0" y1="0" x2="1200" y2="0" stroke="#C9A227" stroke-opacity="0.05"/><line x1="0" y1="60" x2="1200" y2="60" stroke="#C9A227" stroke-opacity="0.05"/><line x1="0" y1="120" x2="1200" y2="120" stroke="#C9A227" stroke-opacity="0.05"/><line x1="0" y1="180" x2="1200" y2="180" stroke="#C9A227" stroke-opacity="0.05"/><line x1="0" y1="240" x2="1200" y2="240" stroke="#C9A227" stroke-opacity="0.05"/><line x1="0" y1="300" x2="1200" y2="300" stroke="#C9A227" stroke-opacity="0.05"/><line x1="0" y1="360" x2="1200" y2="360" stroke="#C9A227" stroke-opacity="0.05"/><line x1="0" y1="420" x2="1200" y2="420" stroke="#C9A227" stroke-opacity="0.05"/><line x1="0" y1="480" x2="1200" y2="480" stroke="#C9A227" stroke-opacity="0.05"/><line x1="0" y1="540" x2="1200" y2="540" stroke="#C9A227" stroke-opacity="0.05"/><line x1="0" y1="600" x2="1200" y2="600" stroke="#C9A227" stroke-opacity="0.05"/><line x1="0" y1="660" x2="1200" y2="660" stroke="#C9A227" stroke-opacity="0.05"/><line x1="0" y1="720" x2="1200" y2="720" stroke="#C9A227" stroke-opacity="0.05"/><line x1="0" y1="780" x2="1200" y2="780" stroke="#C9A227" stroke-opacity="0.05"/><line x1="0" y1="840" x2="1200" y2="840" stroke="#C9A227" stroke-opacity="0.05"/></g>
  <rect x="0" y="608.0" width="1200" height="160" fill="url(#floor)"/>
  <g><rect x="0.0" y="429.8" width="109.5" height="218.2" fill="#C9A227" opacity="0.10"/><rect x="0.0" y="429.8" width="109.5" height="218.2" fill="none" stroke="#C9A227" stroke-opacity="0.35" stroke-width="1"/><rect x="130.5" y="326.2" width="94.5" height="321.8" fill="#C9A227" opacity="0.10"/><rect x="130.5" y="326.2" width="94.5" height="321.8" fill="none" stroke="#C9A227" stroke-opacity="0.35" stroke-width="1"/><rect x="235.5" y="448.9" width="87.0" height="199.1" fill="#C9A227" opacity="0.10"/><rect x="235.5" y="448.9" width="87.0" height="199.1" fill="none" stroke="#C9A227" stroke-opacity="0.35" stroke-width="1"/><rect x="343.5" y="475.9" width="94.5" height="172.1" fill="#C9A227" opacity="0.10"/><rect x="343.5" y="475.9" width="94.5" height="172.1" fill="none" stroke="#C9A227" stroke-opacity="0.35" stroke-width="1"/><rect x="445.5" y="452.2" width="162.0" height="195.8" fill="#C9A227" opacity="0.10"/><rect x="445.5" y="452.2" width="162.0" height="195.8" fill="none" stroke="#C9A227" stroke-opacity="0.35" stroke-width="1"/><rect x="619.5" y="389.2" width="64.5" height="258.8" fill="#C9A227" opacity="0.10"/><rect x="619.5" y="389.2" width="64.5" height="258.8" fill="none" stroke="#C9A227" stroke-opacity="0.35" stroke-width="1"/><rect x="693.0" y="434.2" width="61.5" height="213.8" fill="#C9A227" opacity="0.10"/><rect x="693.0" y="434.2" width="61.5" height="213.8" fill="none" stroke="#C9A227" stroke-opacity="0.35" stroke-width="1"/><rect x="763.5" y="437.6" width="75.0" height="210.4" fill="#C9A227" opacity="0.10"/><rect x="763.5" y="437.6" width="75.0" height="210.4" fill="none" stroke="#C9A227" stroke-opacity="0.35" stroke-width="1"/><rect x="855.0" y="473.6" width="142.5" height="174.4" fill="#C9A227" opacity="0.10"/><rect x="855.0" y="473.6" width="142.5" height="174.4" fill="none" stroke="#C9A227" stroke-opacity="0.35" stroke-width="1"/><rect x="1009.5" y="446.6" width="127.5" height="201.4" fill="#C9A227" opacity="0.10"/><rect x="1009.5" y="446.6" width="127.5" height="201.4" fill="none" stroke="#C9A227" stroke-opacity="0.35" stroke-width="1"/><rect x="1153.5" y="351.0" width="165.0" height="297.0" fill="#C9A227" opacity="0.10"/><rect x="1153.5" y="351.0" width="165.0" height="297.0" fill="none" stroke="#C9A227" stroke-opacity="0.35" stroke-width="1"/></g>
  <line x1="0" y1="648.0" x2="1200" y2="648.0" stroke="#C9A227" stroke-opacity="0.5" stroke-width="1.5"/>
  <circle cx="168" cy="198" r="3" fill="#C9A227"/>
  <circle cx="744" cy="144" r="3" fill="#C9A227"/>
  <circle cx="996" cy="270" r="3" fill="#C9A227"/>
  <text x="72" y="126" font-family="monospace" font-size="15" fill="#C9A227" opacity="0.7" letter-spacing="2">PLACEHOLDER IMAGE</text>
  <text x="72" y="810" font-family="Georgia, serif" font-size="34" fill="#F6F3EC" opacity="0.92">The Sidings, Bradford</text>
  <text x="72" y="860" font-family="monospace" font-size="14" fill="#C9A227" opacity="0.75">GALLERY IMAGE 2</text>
</svg>