<svg xmlns="http://www.w3.org/2000/svg" viewBox="0 0 1600 1000" width="1600" height="1000" role="img" aria-label="The Sidings, Bradford placeholder image">
  <defs>
    <linearGradient id="bg" x1="0" y1="0" x2="1" y2="1">
      <stop offset="0%" stop-color="#0D1013"/>
      <stop offset="100%" stop-color="#1A1712"/>
    </linearGradient>
    <linearGradient id="floor" x1="0" y1="0" x2="0" y2="1">
      <stop offset="0%" stop-color="#C9A227" stop-opacity="0.14"/>
      <stop offset="100%" stop-color="#C9A227" stop-opacity="0"/>
    </linearGradient>
  </defs>
  <rect width="1600" height="1000" fill="url(#bg)"/>
  <g><line x1="0" y1="0" x2="0" y2="1000" stroke="#C9A227" stroke-opacity="0.05"/><line x1="60" y1="0" x2="60" y2="1000" stroke="#C9A227" stroke-opacity="0.05"/><line x1="120" y1="0" x2="120" y2="1000" stroke="#C9A227" stroke-opacity="0.05"/><line x1="180" y1="0" x2="180" y2="1000" stroke="#C9A227" stroke-opacity="0.05"/><line x1="240" y1="0" x2="240" y2="1000" stroke="#C9A227" stroke-opacity="0.05"/><line x1="300" y1="0" x2="300" y2="1000" stroke="#C9A227" stroke-opacity="0.05"/><line x1="360" y1="0" x2="360" y2="1000" stroke="#C9A227" stroke-opacity="0.05"/><line x1="420" y1="0" x2="420" y2="1000" stroke="#C9A227" stroke-opacity="0.05"/><line x1="480" y1="0" x2="480" y2="1000" stroke="#C9A227" stroke-opacity="0.05"/><line x1="540" y1="0" x2="540" y2="1000" stroke="#C9A227" stroke-opacity="0.05"/><line x1="600" y1="0" x2="600" y2="1000" stroke="#C9A227" stroke-opacity="0.05"/><line x1="660" y1="0" x2="660" y2="1000" stroke="#C9A227" stroke-opacity="0.05"/><line x1="720" y1="0" x2="720" y2="1000" stroke="#C9A227" stroke-opacity="0.05"/><line x1="780" y1="0" x2="780" y2="1000" stroke="#C9A227" stroke-opacity="0.05"/><line x1="840" y1="0" x2="840" y2="1000" stroke="#C9A227" stroke-opacity="0.05"/><line x1="900" y1="0" x2="900" y2="1000" stroke="#C9A227" stroke-opacity="0.05"/><line x1="960" y1="0" x2="960" y2="1000" stroke="#C9A227" stroke-opacity="0.05"/><line x1="1020" y1="0" x2="1020" y2="1000" stroke="#C9A227" stroke-opacity="0.05"/><line x1="1080" y1="0" x2="1080" y2="1000" stroke="#C9A227" stroke-opacity="0.05"/><line x1="1140" y1="0" x2="1140" y2="1000" stroke="#C9A227" stroke-opacity="0.05"/><line x1="1200" y1="0" x2="1200" y2="1000" stroke="#C9A227" stroke-opacity="0.05"/><line x1="1260" y1="0" x2="1260" y2="1000" stroke="#C9A227" stroke-opacity="0.05"/><line x1="1320" y1="0" x2="1320" y2="1000" stroke="#C9A227" stroke-opacity="0.05"/><line x1="1380" y1="0" x2="1380" y2="1000" stroke="#C9A227" stroke-opacity="0.05"/><line x1="1440" y1="0" x2="1440" y2="1000" stroke="#C9A227" stroke-opacity="0.05"/><line x1="1500" y1="0" x2="1500" y2="1000" stroke="#C9A227" stroke-opacity="0.05"/><line x1="1560" y1="0" x2="1560" y2="1000" stroke="#C9A227" stroke-opacity="0.05"/><line x1="0" y1="0" x2="1600" y2="0" stroke="#C9A227" stroke-opacity="0.05"/><line x1="0" y1="60" x2="1600" y2="60" stroke="#C9A227" stroke-opacity="0.05"/><line x1="0" y1="120" x2="1600" y2="120" stroke="#C9A227" stroke-opacity="0.05"/><line x1="0" y1="180" x2="1600" y2="180" stroke="#C9A227" stroke-opacity="0.05"/><line x1="0" y1="240" x2="1600" y2="240" stroke="#C9A227" stroke-opacity="0.05"/><line x1="0" y1="300" x2="1600" y2="300" stroke="#C9A227" stroke-opacity="0.05"/><line x1="0" y1="360" x2="1600" y2="360" stroke="#C9A227" stroke-opacity="0.05"/><line x1="0" y1="420" x2="1600" y2="420" stroke="#C9A227" stroke-opacity="0.05"/><line x1="0" y1="480" x2="1600" y2="480" stroke="#C9A227" stroke-opacity="0.05"/><line x1="0" y1="540" x2="1600" y2="540" stroke="#C9A227" stroke-opacity="0.05"/><line x1="0" y1="600" x2="1600" y2="600" stroke="#C9A227" stroke-opacity="0.05"/><line x1="0" y1="660" x2="1600" y2="660" stroke="#C9A227" stroke-opacity="0.05"/><line x1="0" y1="720" x2="1600" y2="720" stroke="#C9A227" stroke-opacity="0.05"/><line x1="0" y1="780" x2="1600" y2="780" stroke="#C9A227" stroke-opacity="0.05"/><line x1="0" y1="840" x2="1600" y2="840" stroke="#C9A227" stroke-opacity="0.05"/><line x1="0" y1="900" x2="1600" y2="900" stroke="#C9A227" stroke-opacity="0.05"/><line x1="0" y1="960" x2="1600" y2="960" stroke="#C9A227" stroke-opacity="0.05"/></g>
  <rect x="0" y="680.0" width="1600" height="160" fill="url(#floor)"/>
  <g><rect x="0.0" y="391.2" width="194.0" height="328.8" fill="#C9A227" opacity="0.10"/><rect x="0.0" y="391.2" width="194.0" height="328.8" fill="none" stroke="#C9A227" stroke-opacity="0.35" stroke-width="1"/><rect x="216.0" y="407.5" width="194.0" height="312.5" fill="#C9A227" opacity="0.10"/><rect x="216.0" y="407.5" width="194.0" height="312.5" fill="none" stroke="#C9A227" stroke-opacity="0.35" stroke-width="1"/><rect x="436.0" y="511.2" width="128.0" height="208.8" fill="#C9A227" opacity="0.10"/><rect x="436.0" y="511.2" width="128.0" height="208.8" fill="none" stroke="#C9A227" stroke-opacity="0.35" stroke-width="1"/><rect x="588.0" y="368.8" width="200.0" height="351.2" fill="#C9A227" opacity="0.10"/><rect x="588.0" y="368.8" width="200.0" height="351.2" fill="none" stroke="#C9A227" stroke-opacity="0.35" stroke-width="1"/><rect x="814.0" y="540.0" width="126.0" height="180.0" fill="#C9A227" opacity="0.10"/><rect x="814.0" y="540.0" width="126.0" height="180.0" fill="none" stroke="#C9A227" stroke-opacity="0.35" stroke-width="1"/><rect x="962.0" y="525.0" width="156.0" height="195.0" fill="#C9A227" opacity="0.10"/><rect x="962.0" y="525.0" width="156.0" height="195.0" fill="none" stroke="#C9A227" stroke-opacity="0.35" stroke-width="1"/><rect x="1128.0" y="348.8" width="216.0" height="371.2" fill="#C9A227" opacity="0.10"/><rect x="1128.0" y="348.8" width="216.0" height="371.2" fill="none" stroke="#C9A227" stroke-opacity="0.35" stroke-width="1"/><rect x="1372.0" y="380.0" width="90.0" height="340.0" fill="#C9A227" opacity="0.10"/><rect x="1372.0" y="380.0" width="90.0" height="340.0" fill="none" stroke="#C9A227" stroke-opacity="0.35" stroke-width="1"/><rect x="1482.0" y="361.2" width="194.0" height="358.8" fill="#C9A227" opacity="0.10"/><rect x="1482.0" y="361.2" width="194.0" height="358.8" fill="none" stroke="#C9A227" stroke-opacity="0.35" stroke-width="1"/></g>
  <line x1="0" y1="720.0" x2="1600" y2="720.0" stroke="#C9A227" stroke-opacity="0.5" stroke-width="1.5"/>
  <circle cx="224" cy="220" r="3" fill="#C9A227"/>
  <circle cx="992" cy="160" r="3" fill="#C9A227"/>
  <circle cx="1328" cy="300" r="3" fill="#C9A227"/>
  <text x="96" y="140" font-family="monospace" font-size="15" fill="#C9A227" opacity="0.7" letter-spacing="2">PLACEHOLDER IMAGE</text>
  <text x="96" y="900" font-family="Georgia, serif" font-size="34" fill="#F6F3EC" opacity="0.92">The Sidings, Bradford</text>
  <text x="96" y="955" font-family="monospace" font-size="14" fill="#C9A227" opacity="0.75">REPLACE WITH FINAL PHOTOGRAPHY</text>
</svg>